<?xml version="1.0" encoding="utf-8"?>
<!-- Generator: Adobe Illustrator 22.1.0, SVG Export Plug-In . SVG Version: 6.00 Build 0)  -->
<svg version="1.1" id="padbase" xmlns="http://www.w3.org/2000/svg" xmlns:xlink="http://www.w3.org/1999/xlink" x="0px" y="0px"
	 viewBox="0 0 125.6 28.6" style="enable-background:new 0 0 125.6 28.6;" xml:space="preserve">
<!--<style type="text/css">-->
<!--	.st0{fill:#FFFFFF;}-->
<!--</style>-->
<g>
	<path class="st0" d="M3.8,0.2c0.9,0,1.7,0.2,2.4,0.6c0.7,0.4,1.2,1.2,1.7,2.4c1.2-2.2,2.9-3.2,5-3.2c2.8,0,4.8,0.8,6.1,2.4
		c1.3,1.6,2,4.2,2,7.7s-0.9,6.5-2.7,9c-1.8,2.5-4.2,3.7-7.2,3.7c-1.1,0-2-0.1-2.5-0.3c-0.3,2.3-0.8,3.9-1.5,4.8
		c-0.7,0.9-1.6,1.4-2.9,1.4c-0.7,0-1.4-0.1-2.1-0.4c-0.7-0.3-1.2-0.6-1.6-0.9L0,26.9c0.3-1.2,0.4-3.9,0.4-8.2
		c0-6.4-0.1-11.6-0.3-15.5L0,1.6C0.8,0.7,2.1,0.2,3.8,0.2z M8.8,8.4C8.9,10,9,11.8,9,13.8c0,2-0.1,3.9-0.2,5.6
		c1.4-0.3,2.5-1.1,3.2-2.2c0.8-1.1,1.2-2.5,1.2-4.2c0-1.7-0.4-2.9-1.3-3.6C11.1,8.7,10.1,8.4,8.8,8.4L8.8,8.4z"/>
	<path class="st0" d="M30.2,16.6c0-1.9-1.1-2.8-3.2-2.8c-1.2,0-2.5,0.4-3.8,1.2c-0.4-0.4-0.6-1-0.6-1.6s0.2-1.3,0.5-1.9
		c0.4-0.7,0.8-1.3,1.4-1.9S26,8.4,26.9,8c0.9-0.4,1.9-0.6,3-0.6c2.1,0,3.7,0.7,4.8,2c1.1,1.3,1.7,3.2,1.7,5.6v9.2l0.9,2
		c-0.1,0.2-0.3,0.4-0.4,0.7c-0.2,0.3-0.6,0.6-1.2,1.1c-0.6,0.5-1.3,0.7-2,0.7c-1.7,0-2.8-1-3.2-2.9c-0.9,1.9-2.1,2.9-3.7,2.9
		s-2.7-0.5-3.6-1.5c-0.8-1-1.2-2.2-1.2-3.8c0-4.1,2.7-6.2,8.2-6.5V16.6z M27,21.8c0,1,0.4,1.7,1.1,2c0.2,0.1,0.3,0.1,0.5,0.1
		c0.5,0,1.1-0.3,1.6-0.9v-4.4C28,19.1,27,20.2,27,21.8z"/>
	<path class="st0" d="M54,5.5v18.6l0.8,2c-0.1,0.2-0.3,0.4-0.4,0.7c-0.2,0.3-0.6,0.6-1.2,1.1c-0.6,0.5-1.3,0.7-2,0.7
		c-1.5,0-2.5-0.7-3-2.2c-0.9,1.5-2.1,2.2-3.8,2.2s-3-0.5-4-1.6c-1-1.1-1.5-2.4-1.5-4v-6.2c0-2.6,0.8-4.7,2.3-6.3s3.4-2.3,5.6-2.3
		c0.3,0,0.7,0,1.1,0.1c-0.1-1.7-0.3-3.4-0.7-5.1L47,2.4c0.1-0.1,0.3-0.3,0.5-0.5c0.2-0.2,0.6-0.5,1.3-0.9c0.7-0.4,1.4-0.5,2.1-0.5
		C52.9,0.5,54,2.1,54,5.5z M44.6,20.8c0,1,0.2,1.8,0.7,2.3c0.5,0.5,1.3,0.8,2.6,0.9v-8.7c-0.1-0.7-0.4-1.3-0.9-1.6s-1.3-0.6-2.4-0.9
		V20.8z"/>
	<path class="st0" d="M60.5,0.2c0.9,0,1.7,0.2,2.4,0.6c0.7,0.4,1.2,1.2,1.7,2.4c1.2-2.2,2.9-3.2,5-3.2c5.4,0,8.1,2.8,8.1,8.5
		c0,1.9-0.3,3.5-1,4.8c-0.7,1.4-1.6,2.4-2.7,3.1c2.5,0.8,3.8,2.4,3.8,4.6c0,2.5-0.8,4.4-2.4,5.6c-1.6,1.3-3.5,1.9-5.6,1.9
		s-4-0.6-5.6-1.9c-0.7,1.3-1.7,1.9-3.2,1.9c-0.7,0-1.4-0.1-2.1-0.4c-0.7-0.3-1.2-0.6-1.6-0.9l-0.5-0.4c0.3-1.2,0.4-3.9,0.4-8.2
		c0-6.4-0.1-11.6-0.3-15.5l-0.1-1.7C57.5,0.7,58.7,0.2,60.5,0.2z M67.2,19.2l-1.7,0c-0.1,1-0.2,2.2-0.3,3.5c0.9,0.7,1.7,1.1,2.4,1.1
		s1.3-0.2,1.6-0.5c0.3-0.4,0.5-0.9,0.5-1.8c0-0.8-0.3-1.4-0.8-1.8C68.4,19.4,67.8,19.2,67.2,19.2z M65.5,8.4c0.1,1.6,0.2,2.9,0.2,4
		c0,1.1,0,2.5-0.1,4.2c0.7-0.4,1.8-0.6,3.3-0.6c0.8-1,1.2-2.2,1.2-3.4C70.1,9.8,68.6,8.4,65.5,8.4L65.5,8.4z"/>
	<path class="st0" d="M87.6,16.6c0-1.9-1.1-2.8-3.2-2.8c-1.2,0-2.5,0.4-3.8,1.2c-0.4-0.4-0.6-1-0.6-1.6s0.2-1.3,0.5-1.9
		c0.4-0.7,0.8-1.3,1.4-1.9c0.6-0.6,1.4-1.1,2.3-1.5c0.9-0.4,1.9-0.6,3-0.6c2.1,0,3.7,0.7,4.8,2c1.1,1.3,1.7,3.2,1.7,5.6v9.2l0.9,2
		c-0.1,0.2-0.3,0.4-0.4,0.7c-0.2,0.3-0.6,0.6-1.2,1.1c-0.6,0.5-1.3,0.7-2,0.7c-1.7,0-2.8-1-3.2-2.9c-0.9,1.9-2.1,2.9-3.7,2.9
		c-1.6,0-2.7-0.5-3.6-1.5c-0.8-1-1.2-2.2-1.2-3.8c0-4.1,2.7-6.2,8.2-6.5V16.6z M84.4,21.8c0,1,0.4,1.7,1.1,2
		c0.2,0.1,0.3,0.1,0.5,0.1c0.5,0,1.1-0.3,1.6-0.9v-4.4C85.4,19.1,84.4,20.2,84.4,21.8z"/>
	<path class="st0" d="M101.2,12.5c0,1.1,1,2,2.9,2.9c0.8,0.4,1.6,0.8,2.3,1.2c0.8,0.4,1.5,1.1,2,1.9c0.6,0.8,0.8,1.9,0.8,3.1
		c0,2.1-0.7,3.8-2.1,5.1c-1.4,1.3-3.2,1.9-5.3,1.9c-2.1,0-3.7-0.5-4.9-1.4s-1.7-1.9-1.7-2.9c0-0.7,0.2-1.3,0.5-1.9
		c0.3-0.5,0.7-0.9,1-1.1l0.5-0.3c0.2,0.2,0.4,0.5,0.7,0.9c0.3,0.4,0.9,0.8,1.8,1.4s1.7,0.9,2.3,0.9s1.1-0.1,1.4-0.3
		c0.3-0.2,0.4-0.4,0.4-0.7c0-0.5-0.4-0.9-1.3-1.4c-0.8-0.5-1.8-1-2.7-1.4s-1.9-1.1-2.7-1.9c-0.8-0.9-1.3-1.8-1.3-2.9
		c0-1.1,0.3-2.1,1-3.1c0.7-1,1.4-1.7,2.3-2.1c0.1-0.9,0.7-1.6,1.6-2.2c0.9-0.6,2.1-1,3.6-1c1.4,0,2.6,0.3,3.5,1
		c0.9,0.7,1.3,1.6,1.3,2.7c0,1.1-0.2,1.9-0.5,2.4c-0.3,0.5-0.8,0.9-1.5,1.2c-1.2-1.3-3.2-2.1-6-2.4V12.5z"/>
	<path class="st0" d="M125,22.9c0.3,0.3,0.4,0.7,0.4,1.2s-0.1,1-0.4,1.5c-0.3,0.5-0.6,1-1.1,1.4c-0.5,0.5-1.2,0.9-2.1,1.2
		s-1.9,0.5-3,0.5s-2-0.2-2.9-0.5s-1.7-0.8-2.4-1.5c-1.7-1.5-2.5-3.9-2.5-7.3c0-3.4,0.6-5.9,1.7-7.5c1.1-1.6,2.5-2.5,3.9-2.7
		c1.1-1.1,2.4-1.7,3.9-1.7c1.5,0,2.7,0.5,3.7,1.6c0.9,1.1,1.4,2.6,1.4,4.5c0,2.2-0.8,4-2.4,5.2c-1.3,1.1-2.9,1.9-4.8,2.4
		c0.9,1.2,2.5,1.8,4.6,1.8C123.6,23,124.3,23,125,22.9z M120,15.5c0-1.6-1-2.5-3-2.7v3.6c0,1.2,0.1,2.2,0.3,2.9
		C119.1,18.3,120,17,120,15.5z"/>
</g>
</svg>
