<svg xmlns="http://www.w3.org/2000/svg" viewBox="0 0 52.501 71.503" height="32" width="32"><g style="fill:#02274c" fill="#02274c" font-size="9pt" fill-rule="evenodd" id="svgGroup"><path d="M 1.4 68.303 L 0.1 67.303 A 23.362 23.362 0 0 0 0.49 64.823 Q 0.955 60.689 1.066 52.437 A 415.047 415.047 0 0 0 1.1 46.903 Q 1.1 25.344 0.46 11.388 A 358.48 358.48 0 0 0 0.3 8.203 L 0 3.903 A 9.14 9.14 0 0 1 3.727 1.48 Q 5.222 0.938 7.07 0.731 A 21.83 21.83 0 0 1 9.5 0.603 Q 12.9 0.603 15.4 2.153 A 7.686 7.686 0 0 1 17.177 3.716 Q 18.575 5.353 19.7 8.103 A 18.873 18.873 0 0 1 22.82 3.875 A 12.908 12.908 0 0 1 32.3 0.003 A 28.38 28.38 0 0 1 37.99 0.536 Q 44.155 1.799 47.6 6.053 A 18.289 18.289 0 0 1 50.538 11.46 Q 52.305 16.403 52.481 23.667 A 67.549 67.549 0 0 1 52.5 25.303 A 43.253 43.253 0 0 1 51.171 36.266 A 33.709 33.709 0 0 1 45.8 47.703 A 22.522 22.522 0 0 1 38.78 54.141 Q 34.285 56.708 28.571 56.889 A 27.596 27.596 0 0 1 27.7 56.903 A 35.44 35.44 0 0 1 25.504 56.839 Q 22.909 56.678 21.4 56.103 A 57.236 57.236 0 0 1 20.667 60.262 Q 19.798 64.253 18.509 66.675 A 11.049 11.049 0 0 1 17.65 68.053 A 8.175 8.175 0 0 1 11.686 71.442 A 11.259 11.259 0 0 1 10.5 71.503 A 13.58 13.58 0 0 1 5.95 70.699 A 15.744 15.744 0 0 1 5.3 70.453 A 24.035 24.035 0 0 1 3.802 69.791 Q 2.294 69.059 1.4 68.303 Z M 22.2 20.903 L 22.1 20.903 Q 22.5 26.903 22.5 34.403 Q 22.5 41.903 22.1 48.403 A 14.399 14.399 0 0 0 26.976 46.217 A 13.262 13.262 0 0 0 30.2 42.953 A 15.561 15.561 0 0 0 32.612 37.309 Q 33.085 35.156 33.1 32.664 A 27.195 27.195 0 0 0 33.1 32.503 Q 33.1 26.203 29.85 23.553 Q 26.6 20.903 22.2 20.903 Z"></path></g></svg>